<svg width="16" height="21" viewBox="0 0 16 21" fill="none" xmlns="http://www.w3.org/2000/svg">
<path d="M6 19H10C10 20.1 9.1 21 8 21C6.9 21 6 20.1 6 19ZM16 16.35V18H0V16.35L2 14.47V9.31998C2 6.39998 3.56 4.09998 6 3.33998V2.95998C6 1.53998 7.49 0.459976 8.99 1.19998C9.64 1.51998 10 2.22998 10 2.95998V3.34998C12.44 4.09998 14 6.40998 14 9.32998V14.48L16 16.35ZM15 16.77L13 14.89V9.41998C13 6.94998 11.81 5.05998 9.87 4.31998C8.61 3.78998 7.23 3.81998 6.03 4.34998C4.15 5.10998 3 6.98998 3 9.41998V14.89L1 16.77V17H15V16.77Z" fill="white"/>
</svg>
