<svg width="18" height="20" viewBox="0 0 18 20" fill="none" xmlns="http://www.w3.org/2000/svg">
<path d="M6.99995 12.65V7.34999L12 9.99999L6.99995 12.65ZM14.77 8.31999C14 7.99999 13.57 7.81999 13.57 7.81999L15 7.05999C16.84 6.09999 17.53 3.82999 16.56 1.99999C15.59 0.169991 13.32 -0.530009 11.49 0.439991L2.99995 4.93999C1.70995 5.61999 0.929953 6.97999 0.999953 8.42999C1.06995 9.84999 1.92995 11.1 3.21995 11.68C3.24995 11.69 4.41995 12.18 4.41995 12.18L2.99995 12.93C1.16995 13.9 0.469953 16.17 1.43995 18C2.40995 19.83 4.67995 20.53 6.50995 19.56L15.01 15.06C16.3 14.38 17.07 13.02 17 11.57C16.93 10.15 16.06 8.88999 14.77 8.31999ZM14.54 14.18L6.03995 18.68C4.69995 19.39 3.02995 18.88 2.31995 17.54C1.60995 16.2 2.11995 14.53 3.45995 13.82L5.49995 12.74V11.53L4.80995 11.25L3.69995 10.79C2.70995 10.38 2.04995 9.43999 1.99995 8.37999C1.94995 7.31999 2.51995 6.31999 3.45995 5.81999L11.96 1.31999C13.3 0.609991 14.97 1.11999 15.68 2.45999C16.39 3.79999 15.88 5.46999 14.54 6.17999L12.5 7.25999V8.46999L14.3 9.20999C15.29 9.61999 15.95 10.56 16 11.62C16.05 12.68 15.48 13.68 14.54 14.18Z" fill="white"/>
</svg>
